<svg xmlns="http://www.w3.org/2000/svg" xmlns:xlink="http://www.w3.org/1999/xlink" width="500pt" height="470.668" viewBox="0 0 500 353.001"><g data-name="Span"><symbol id="a"><path d="M.277.718h.139L.692 0H.55L.494.148H.2L.142 0H0l.277.718m.07-.19L.251.28h.191L.347.528z"/></symbol><symbol id="b"><path d="M.695.62.6.523A.284.284 0 0 1 .386.62.244.244 0 0 1 .208.55a.231.231 0 0 1-.07-.172C.137.31.161.251.21.203A.252.252 0 0 1 .395.131C.442.13.48.14.514.16c.032.02.058.05.078.093H.384v.128h.362v-.03A.352.352 0 0 0 .699.173.341.341 0 0 0 .57.044.36.36 0 0 0 .39 0a.407.407 0 0 0-.2.048.36.36 0 0 0-.138.139A.387.387 0 0 0 0 .381a.371.371 0 0 0 .385.374C.448.754.506.742.561.72a.402.402 0 0 0 .134-.1z"/></symbol><symbol id="c"><path d="M0 .718h.139v-.27h.24v.27h.138V0H.38v.315h-.24V0H0v.718z"/></symbol><symbol id="d"><path d="M0 0z"/></symbol><symbol id="e"><path d="M0 .718h.138V.471l.195.247h.165L.247.398.522 0H.36L.138.319V0H0v.718z"/></symbol><symbol id="f"><path d="M0 .531h.114V.464a.143.143 0 0 0 .05.06.119.119 0 0 0 .121.007L.244.417a.092.092 0 0 1-.039.011C.185.428.167.416.153.39A.352.352 0 0 1 .132.24V0H0v.531z"/></symbol><symbol id="g"><path d="M.417.545H.55V.014H.417V.07A.22.22 0 0 0 .253 0a.237.237 0 0 0-.178.08A.28.28 0 0 0 0 .278C0 .36.024.428.073.48a.232.232 0 0 0 .266.06.245.245 0 0 0 .078-.054v.059m-.14-.11A.135.135 0 0 1 .174.393.156.156 0 0 1 .133.28.16.16 0 0 1 .174.167.136.136 0 0 1 .277.122c.042 0 .077.015.105.044A.16.16 0 0 1 .423.28a.155.155 0 0 1-.041.113.14.14 0 0 1-.105.043z"/></symbol><symbol id="h"><path d="M0 .736h.133V.312l.197.22h.167L.268.275.524 0H.36L.133.245V0H0v.736z"/></symbol><symbol id="i"><path d="M.275.559A.28.28 0 0 0 .418.037.283.283 0 0 0 .276 0 .266.266 0 0 0 .08.081.27.27 0 0 0 0 .28C0 .362.03.43.091.486A.267.267 0 0 0 .275.56M.277.433A.137.137 0 0 1 .174.39.153.153 0 0 1 .133.28c0-.047.013-.084.04-.113A.137.137 0 0 1 .277.124c.042 0 .076.015.104.043A.155.155 0 0 1 .422.28a.153.153 0 0 1-.04.111.137.137 0 0 1-.105.043z"/></symbol><symbol id="j"><path d="M0 .531h.13L.237.23l.116.302h.08L.544.232l.107.3h.131L.59 0H.505L.392.303.275 0H.19L0 .531z"/></symbol><use xlink:href="#a" transform="matrix(52.14 0 0 -52.14 90.665 276.763)" fill="#fff"/><use xlink:href="#b" transform="matrix(52.14 0 0 -52.14 130.598 277.705)" fill="#fff"/><use xlink:href="#c" transform="matrix(52.14 0 0 -52.14 176.05 276.763)" fill="#fff"/><use xlink:href="#d" transform="matrix(52.14 0 0 -52.14 207.254 276.763)" fill="#fff"/><use xlink:href="#e" transform="matrix(52.14 0 0 -52.14 226.181 276.763)" fill="#fff"/><use xlink:href="#f" transform="matrix(52.14 0 0 -52.14 256.064 276.763)" fill="#fff"/><use xlink:href="#g" transform="matrix(52.14 0 0 -52.14 273.105 277.476)" fill="#fff"/><use xlink:href="#h" transform="matrix(52.14 0 0 -52.14 308.841 276.763)" fill="#fff"/><use xlink:href="#i" transform="matrix(52.14 0 0 -52.14 337.682 277.476)" fill="#fff"/><use xlink:href="#j" transform="matrix(52.14 0 0 -52.14 369.32 276.763)" fill="#fff"/></g><g data-name="Figure"><g data-name="PlacedPDF"><clipPath id="k"><path transform="matrix(1 0 0 -1 0 353.001)" d="M65.749 126.948h368.503V286.06H65.749z"/></clipPath><g clip-path="url(#k)" fill="#fff"><path d="M142.175 156.251c0 13.206 10.742 23.911 23.985 23.911a23.948 23.948 0 0 0 17.882-7.975h9.833c-5.532 9.532-15.872 15.943-27.715 15.943-17.663 0-31.985-14.272-31.985-31.879s14.322-31.878 31.985-31.878c17.667 0 31.986 14.271 31.986 31.878zm46.949-6.938c-2.98-9.822-12.136-16.97-22.964-16.97-10.764 0-19.873 7.201-22.908 16.935zM73.744 156.251c0 13.206 10.74 23.911 23.985 23.911a23.97 23.97 0 0 0 17.887-7.975h9.826c-5.532 9.532-15.873 15.943-27.713 15.943-17.666 0-31.98-14.272-31.98-31.879s14.314-31.878 31.98-31.878c17.664 0 31.99 14.271 31.99 31.878zm46.95-6.938c-2.984-9.822-12.137-16.97-22.965-16.97-10.764 0-19.873 7.201-22.908 16.935zM313.995 156.251c0 13.206 10.747 23.911 23.987 23.911a23.964 23.964 0 0 0 17.885-7.975h9.824c-5.529 9.532-15.869 15.943-27.709 15.943-17.66 0-31.982-14.272-31.982-31.879s14.322-31.878 31.982-31.878c17.667 0 31.988 14.271 31.988 31.878zm46.954-6.938c-2.985-9.822-12.14-16.97-22.967-16.97-10.762 0-19.867 7.201-22.908 16.935zM277.56 172.155c0 4.535 3.616 8.214 8.086 8.214 9.146 0 16.847-2.56 19.148-6.045l4.608 5.344c-4.558 4.957-13.485 8.328-23.756 8.328-8.834 0-16.035-7.089-16.035-15.84h-.021l-.041-39.692v-.037h-22.617v-8.123h22.617v-31.81h7.995v31.81h12.3v8.123H277.58l-.037.037-.005 39.691zM374.424 156.195c0-17.607 14.319-31.878 31.985-31.878 11.84 0 22.176 6.413 27.843 16.084l-9.826-.003c-4.525-5.034-10.912-8.11-18.017-8.11-13.249 0-23.992 10.704-23.992 23.907l.012.056c0 13.206 10.737 23.911 23.989 23.911a23.94 23.94 0 0 0 17.876-7.977h9.834c-5.533 9.533-15.873 15.945-27.71 15.945-17.666 0-31.983-14.272-31.983-31.879z"/><path d="M216.497 226.026c3.601-2.96 7.514-5.903 11.384-8.813 14.73-11.067 29.966-22.513 29.966-36.786 0-14.215-15.199-25.626-29.893-36.666-13.367-10.04-27.184-20.42-27.184-31.189 0-10.705 13.786-21.057 27.111-31.07 6.275-4.712 12.64-9.494 17.881-14.536l-10.396-.025c-3.65 3.02-7.627 6.008-11.565 8.965-14.697 11.04-29.887 22.451-29.887 36.666 0 14.28 15.23 25.72 29.963 36.783 13.327 10.012 27.107 20.364 27.107 31.072 0 10.765-13.817 21.15-27.183 31.188-6.233 4.683-12.556 9.431-17.773 14.438z"/></g></g></g></svg>