<?xml version="1.0" encoding="UTF-8"?>
<svg id="Layer_1" xmlns="http://www.w3.org/2000/svg" viewBox="0 0 353.48 115.41">
  <defs>
    <style>
      .cls-1 {
        fill: #fff;
      }
    </style>
  </defs>
  <polygon class="cls-1" points="69.88 53.28 46.54 53.28 46.54 35.8 35.01 35.8 35.01 79.46 46.54 79.46 46.54 60.2 69.88 60.2 69.88 79.46 81.47 79.46 81.47 35.8 69.88 35.8 69.88 53.28"/>
  <rect class="cls-1" x="91.01" y="35.8" width="11.67" height="43.67"/>
  <rect class="cls-1" x="306.8" y="35.8" width="11.67" height="43.67"/>
  <polygon class="cls-1" points="152.27 35.8 106.94 35.8 106.94 43.07 123.88 43.07 123.88 79.46 135.33 79.46 135.33 43.07 152.27 43.07 152.27 35.8"/>
  <path class="cls-1" d="M163.01,35.87l-20.7,43.59h12.95l4.06-9.78h21.84l3.99,9.78h13.02l-20.56-43.59h-14.59ZM162.23,62.77l8.04-19.48,7.97,19.48h-16.01Z"/>
  <path class="cls-1" d="M222.21,73.83c-4.48,0-13.66-.93-13.8-16.05-.14-14.27,8.25-16.27,13.8-16.27,5.48.07,10.96,2.64,11.03,9.13h11.81c-.15-7.92-6.97-15.48-22.84-15.63-11.81-.07-26.11,4.78-26.18,22.55-.07,17.62,14.52,23.12,26.18,22.83,10.74-.36,22.7-3.35,23.2-16.62l-11.88.07c-.36,8.28-6.97,9.92-11.31,9.99Z"/>
  <polygon class="cls-1" points="285.96 53.28 262.62 53.28 262.62 35.8 251.1 35.8 251.1 79.46 262.62 79.46 262.62 60.2 285.96 60.2 285.96 79.46 297.48 79.46 297.48 35.8 285.96 35.8 285.96 53.28"/>
</svg>